<svg width="169" height="48" viewBox="0 0 169 48" fill="none" xmlns="http://www.w3.org/2000/svg">
<path d="M22.9263 25.4474C22.9134 25.4622 22.9005 25.4769 22.8894 25.4899C22.8746 25.4806 22.8616 25.4714 22.8468 25.4622C22.5417 25.268 22.2292 25.0664 21.9297 24.8741C21.3268 24.484 20.7018 24.0808 20.0713 23.7018C20.0269 23.6759 19.9844 23.6481 19.94 23.6223C19.7255 23.4928 19.511 23.3615 19.2965 23.2321C19.082 23.1027 18.8675 22.9732 18.653 22.8419C18.2647 22.6071 17.8782 22.3722 17.4899 22.1374C13.7435 19.8722 9.87328 17.5275 6.03817 15.2605C4.45716 14.3266 2.75965 14.3082 1.26185 15.2124C0.78292 15.5008 0.368713 15.8374 0.0173768 16.2183C0.0155277 15.8244 0.0136786 15.4324 0.0118294 15.046C0.019226 14.3951 0.0303208 13.7442 0.046963 13.097C0.0802475 11.7767 0.757032 10.6524 1.95157 9.93125C3.30699 9.11393 4.55146 9.50964 5.35584 9.98487C9.18355 12.2464 13.0501 14.5874 16.7909 16.8526C17.6526 17.374 18.5143 17.8955 19.376 18.4169C19.9881 18.7868 20.6057 19.1843 21.2011 19.5689C21.5044 19.765 21.8169 19.9665 22.1275 20.1625C22.2551 20.242 22.3753 20.3308 22.4881 20.4269C22.6601 20.5712 22.8172 20.7302 22.9578 20.904C23.1002 21.0778 23.2241 21.2665 23.3313 21.4643C23.5218 21.8212 23.6531 22.2132 23.7159 22.6274C23.8713 23.65 23.5828 24.6781 22.9263 25.4474Z" fill="#41415A"/>
<path d="M0.0441414 31.1708C0.0441414 31.156 0.0441414 31.1394 0.0441414 31.1246V31.1708C0.0441414 31.5721 0.0441414 31.9734 0.0441414 32.3746V33.4804C0.0422922 33.4305 0.0422922 33.3787 0.0422922 33.3288C0.0441414 32.6113 0.0441414 31.8902 0.0441414 31.1708Z" fill="#41415A"/>
<path d="M0.0458041 28.0209C0.0458041 28.7069 0.0458041 29.3966 0.0458041 30.0882C0.0458041 30.3767 0.0458041 30.667 0.0458041 30.9555V28.9806H0.0199162C0.0180671 28.215 0.0143688 27.4458 0.0106705 26.6969C0.00142484 24.8866 -0.00782085 23.0301 0.0143688 21.1828C0.0217654 20.6595 0.031011 20.138 0.043955 19.6184C0.043955 19.9069 0.043955 20.1953 0.043955 20.4838C0.043955 21.9261 0.043955 23.3962 0.043955 24.87V25.9462C0.0458041 26.6322 0.0458041 27.3256 0.0458041 28.0209Z" fill="#41415A"/>
<path d="M0.0173768 16.2183C0.0136786 16.2239 0.00938594 16.2301 0.00383853 16.2338C0.00568767 15.838 0.00813115 15.4417 0.0118294 15.046C0.0136786 15.4343 0.0155277 15.8263 0.0173768 16.2183Z" fill="#41415A"/>
<path d="M0.0464463 25.9452V24.869C0.0464463 24.3198 0.0464463 23.7724 0.0464463 23.2232V22.5557H0.0205584C0.0187092 22.0971 0.0180671 21.6377 0.0143688 21.1828C-0.00782085 23.0301 -0.000424299 24.8866 0.0106705 26.6969C0.0143688 27.4458 0.0180671 28.215 0.0199162 28.9806H0.0458041V30.9555C0.0458041 30.667 0.0458041 30.3767 0.0458041 30.0882C0.0458041 29.3966 0.0458041 28.7069 0.0458041 28.0209C0.0476533 27.3238 0.0464463 26.6312 0.0464463 25.9452Z" fill="#41415A"/>
<path d="M0.0464463 25.9452C0.0464463 26.6312 0.0458041 27.3238 0.0458041 28.0209C0.0458041 28.7069 0.0458041 29.3966 0.0458041 30.0882V30.0854V28.9806H0.0199162C0.0180671 28.215 0.0143688 27.4458 0.0106705 26.6969C0.00142484 24.8866 -0.00782085 23.0301 0.0143688 21.1828C0.0217654 20.6595 0.031011 20.138 0.043955 19.6184C0.043955 19.9069 0.043955 20.1953 0.043955 20.4838C0.043955 21.9261 0.043955 23.3962 0.043955 24.87V25.9462L0.0464463 25.9452Z" fill="#41415A"/>
<path d="M0.0173768 16.2183C0.0136786 16.2239 0.00938594 16.2301 0.00383853 16.2338C0.00568767 15.838 0.00813115 15.4417 0.0118294 15.046C0.0136786 15.4343 0.0155277 15.8263 0.0173768 16.2183Z" fill="#41415A"/>
<path d="M23.3319 19.3926C23.1784 19.265 23.0157 19.1466 22.8437 19.0375C22.5386 18.8434 22.2261 18.6418 21.9266 18.4476C21.3237 18.0575 20.6987 17.6544 20.0682 17.2753C19.2065 16.7538 18.3448 16.2324 17.4849 15.7109C13.7423 13.4457 9.87018 11.1029 6.03692 8.83768C4.45591 7.90202 2.7584 7.88538 1.2606 8.7896C0.779823 9.07992 0.360069 9.42016 0.00873247 9.80293C0.016129 9.07992 0.0272238 8.35691 0.0457152 7.63759C0.0789997 6.31731 0.755784 5.19303 1.95033 4.47187C3.30574 3.65455 4.55021 4.05026 5.35459 4.52549C9.18046 6.78699 13.047 9.128 16.7878 11.3932C17.6495 11.9146 18.5112 12.4361 19.3748 12.9576C19.9868 13.3274 20.6044 13.725 21.1998 14.1096C21.5031 14.3056 21.8156 14.5071 22.1263 14.7031C22.9824 15.2468 23.5612 16.1436 23.7147 17.168C23.833 17.9465 23.6943 18.725 23.3319 19.3926Z" fill="#41415A"/>
<path d="M0.042748 27.8712C0.0445972 26.9855 0.0445972 26.0961 0.0445972 25.2066V24.8775C0.0445972 23.4037 0.0445972 21.9336 0.0445972 20.4913C0.0445972 20.2029 0.0445972 19.9144 0.0445972 19.6259C0.0316532 20.1455 0.0224075 20.667 0.015011 21.1903C-0.00717868 23.0376 0.000217871 24.8941 0.0113127 26.7044C0.015011 27.4533 0.0187092 28.2226 0.0205584 28.9881H0.0445972V30.963C0.0445972 30.6745 0.0445972 30.3842 0.0445972 30.0957C0.0445972 29.4042 0.0445972 28.7144 0.0445972 28.0284C0.0445972 27.9766 0.042748 27.9249 0.042748 27.8712ZM0.0445972 31.1756V31.1294C0.0445972 31.1442 0.0445972 31.159 0.0445972 31.1756ZM0.0131618 15.053C0.00946356 15.4487 0.00576528 15.8444 0.00391615 16.2402C0.00946356 16.2346 0.0131618 16.2309 0.0187092 16.2254C0.0168601 15.8315 0.015011 15.4395 0.0131618 15.053Z" fill="#41415A"/>
<path d="M0.0461954 25.9515V24.8753C0.0461954 23.4016 0.0461954 21.9315 0.0461954 20.4892C0.0461954 20.2007 0.0461954 19.9122 0.0461954 19.6238C0.0332514 20.1434 0.0240057 20.6648 0.0166092 21.1881C-0.0055805 23.0354 0.00181605 24.892 0.0129109 26.7023C0.0166092 27.4512 0.0203074 28.2204 0.0221566 28.986H0.0461954V30.9608C0.0461954 30.6724 0.0461954 30.3821 0.0461954 30.0936C0.0461954 29.402 0.0461954 28.7123 0.0461954 28.0263C0.0461954 27.331 0.0461954 26.6376 0.0461954 25.9515ZM0.0443462 31.1735C0.0443462 31.8947 0.0424971 32.614 0.0424971 33.3314C0.0424971 33.3814 0.0443462 33.4331 0.0443462 33.4831V32.3773C0.0461954 31.976 0.0443462 31.5748 0.0443462 31.1735V31.1273C0.0443462 31.1421 0.0443462 31.1568 0.0443462 31.1735Z" fill="#41415A"/>
<path d="M0.044044 31.1691C0.044044 31.8903 0.0421948 32.6096 0.0421948 33.3271C0.0421948 33.377 0.044044 33.4288 0.044044 33.4787V32.3729C0.0458931 31.9717 0.044044 31.5704 0.044044 31.1691V31.1229C0.044044 31.1377 0.044044 31.1525 0.044044 31.1691Z" fill="#41415A"/>
<path d="M22.9253 31.8752C22.6535 32.1951 22.3502 32.4614 22.0506 32.6444C15.6711 36.5627 10.4362 39.7636 5.57298 42.7185C3.85143 43.7651 1.72492 43.301 0.622837 41.6405C0.23082 41.0488 0.040359 40.433 0.0422082 39.7544C0.0440573 38.7188 0.0440573 37.6741 0.0440573 36.633C0.0440573 36.2724 0.0440573 35.9137 0.0440573 35.555C0.0440573 34.8615 0.0443462 34.1691 0.0443462 33.4831V32.3773C0.0443462 31.976 0.0443462 31.5748 0.0443462 31.1735L0.0440573 31.1022C0.0440573 31.056 0.0445972 31.0092 0.0445972 30.963C0.0445972 30.6745 0.0445972 30.3842 0.0445972 30.0957C0.0445972 29.4042 0.0445972 28.7144 0.0445972 28.0284C0.0445972 27.3313 0.0440573 26.6384 0.0440573 25.9524L0.0445972 24.8775C0.0445972 23.4037 0.0445972 21.9336 0.0445972 20.4913C0.0445972 20.2029 0.0445972 19.9144 0.0445972 19.6259C0.0445972 19.5926 0.0459064 19.5581 0.0459064 19.5266C0.0791909 18.2064 0.755975 17.0821 1.95052 16.3609C3.30594 15.5436 4.55041 15.9393 5.35478 16.4145C9.1825 18.6779 13.0509 21.0189 16.7935 23.2841C16.984 23.3987 17.1745 23.5152 17.3668 23.6299C17.5813 23.7593 17.7958 23.8906 18.0103 24.02C18.2248 24.1495 18.4393 24.2808 18.6538 24.4102C18.8942 24.5563 19.1346 24.7005 19.3749 24.8466C19.987 25.2164 20.6046 25.6159 21.2 25.9986C21.3924 26.1244 21.5902 26.2501 21.7881 26.3777C21.9009 26.4498 22.0118 26.5219 22.1246 26.5922C22.2189 26.6532 22.3114 26.7161 22.3983 26.7864C22.5795 26.9269 22.7459 27.0878 22.8957 27.2597C23.3247 27.759 23.6113 28.3803 23.713 29.0552C23.8702 30.0778 23.5817 31.1041 22.9253 31.8752Z" fill="#41415A"/>
<path d="M75.2795 34.161C76.2873 34.6548 77.2636 35.1337 78.2955 35.6404C77.6594 37.1123 76.7551 38.292 75.5587 39.2369C73.4396 40.9122 71.0228 41.7055 68.3101 41.7296C65.6677 41.7536 63.2712 41.075 61.1244 39.5439C58.7575 37.8538 57.2024 35.5997 56.3388 32.8186C55.9191 31.4687 55.7489 30.0855 55.76 28.7172C55.7841 25.631 56.7105 22.8018 58.6669 20.3572C60.4846 18.0846 62.7572 16.5092 65.6659 16.0339C69.9873 15.3257 73.7096 16.4592 76.5684 19.882C77.6187 21.1413 78.2455 22.652 78.669 24.2293C79.1054 25.8566 79.2922 27.5208 79.2219 29.2091C79.2126 29.4328 79.1646 29.6547 79.1257 29.9469C78.8077 29.9783 78.5285 30.0282 78.2492 30.0282C74.7692 30.0338 71.2909 30.0375 67.8109 30.0245C67.4096 30.0227 66.9991 29.9635 66.6108 29.8673C65.2757 29.5382 64.5305 28.2623 64.8578 26.7626C66.5904 26.7109 68.3508 26.7478 70.1112 26.7405C71.8734 26.7331 73.6356 26.7386 75.4478 26.7386C75.5014 26.0711 75.3294 25.5219 75.1778 24.9819C74.6656 23.1457 73.717 21.5999 72.1452 20.4589C71.352 19.8839 70.4699 19.5362 69.5306 19.3439C67.1988 18.865 65.015 19.2533 63.1288 20.7326C60.8673 22.5059 59.6136 24.8506 59.5471 27.7519C59.5138 29.1943 59.4934 30.6366 59.8781 32.0604C60.7934 35.4554 64.0109 38.39 67.9717 38.3734C69.6674 38.366 71.2447 38.0553 72.6796 37.1197C73.3712 36.6685 73.95 36.1193 74.4197 35.4462C74.6933 35.0412 74.9615 34.6344 75.2795 34.161Z" fill="#41415A"/>
<path d="M142.19 29.246C142.077 27.0307 142.528 24.9245 143.569 22.97C145.321 19.6822 147.985 17.4688 151.634 16.6182C156.632 15.4514 160.935 16.7791 164.333 20.6345C166.011 22.5354 166.972 24.821 167.292 27.3691C167.754 31.0563 166.88 34.3903 164.64 37.3248C162.745 39.8082 160.238 41.3486 157.111 41.9051C154.172 42.4266 151.397 42.0605 148.791 40.6348C145.282 38.7135 143.137 35.7605 142.353 31.8329C142.29 31.5222 142.212 31.2097 142.197 30.8935C142.171 30.3462 142.19 29.7952 142.19 29.246ZM163.597 29.2718C163.612 27.4005 163.167 25.642 162.214 24.0499C160.374 20.9729 157.725 19.3383 154.032 19.5916C151.192 19.7876 148.995 21.0931 147.504 23.4545C145.452 26.7034 145.317 30.1594 146.889 33.6358C147.959 36.0064 149.723 37.7002 152.281 38.4436C153.368 38.7598 154.479 38.83 155.618 38.7394C156.985 38.6322 158.237 38.2346 159.346 37.4654C162.203 35.4868 163.516 32.6927 163.597 29.2718Z" fill="#41415A"/>
<path d="M86.0146 41.6337C86.0146 33.3366 86.0146 25.071 86.0146 16.8127C86.6507 16.6112 88.4592 16.5816 89.4208 16.7628C89.6094 17.4174 89.4892 18.1108 89.5095 18.7932C89.5299 19.4755 89.5132 20.1578 89.5132 21.0269C89.8387 20.6053 90.055 20.3446 90.2473 20.0691C91.6194 18.1034 93.4778 16.7961 95.8299 16.4004C98.4205 15.964 100.967 16.1581 103.252 17.6985C104.891 18.8006 105.882 20.3742 106.514 22.1808C106.945 23.4123 107.102 24.7012 107.095 26.0214C107.067 30.9143 107.084 35.8071 107.084 40.6999C107.084 40.9847 107.084 41.2694 107.084 41.556C106.412 41.8593 105.876 41.6189 105.383 41.3378C103.948 40.5224 103.421 39.1928 103.409 37.6211C103.393 35.3337 103.406 33.0463 103.404 30.7589C103.402 29.2815 103.406 27.8059 103.393 26.3284C103.382 25.1246 103.112 23.9855 102.544 22.913C101.544 21.0214 99.9849 20.021 97.8621 19.7695C96.8339 19.6475 95.8336 19.6604 94.8609 19.9526C92.0706 20.7958 90.497 22.7762 89.8479 25.5388C89.6981 26.1786 89.663 26.8554 89.6593 27.5174C89.6408 30.9346 89.6408 34.35 89.6556 37.7672C89.6611 39.1392 89.1508 40.245 88.0746 41.0827C87.4921 41.5357 86.8394 41.8057 86.0146 41.6337Z" fill="#41415A"/>
<path d="M134.289 32.797C135.389 33.1742 136.424 33.5274 137.549 33.9138C137.482 34.2485 137.475 34.5352 137.367 34.7792C135.764 38.4331 133.037 40.85 129.161 41.7819C125.906 42.566 122.711 42.1961 119.769 40.4894C116.363 38.5126 114.495 35.4671 113.821 31.6523C113.379 29.1523 113.56 26.6782 114.501 24.3187C116.078 20.3671 118.893 17.7043 123.057 16.617C126.469 15.7257 129.719 16.2231 132.745 18.0298C135.11 19.4425 136.916 21.826 137.443 24.2336C137.225 24.3094 136.999 24.437 136.763 24.4629C135.396 24.609 134.18 24.2854 133.198 23.2665C132.558 22.6027 131.964 21.876 131.245 21.3101C127.369 18.2553 121.162 19.2539 118.602 24.119C117.859 25.5317 117.395 27.0295 117.38 28.5957C117.345 32.1516 118.412 35.2637 121.465 37.4124C122.597 38.2094 123.863 38.6513 125.269 38.7327C126.519 38.8048 127.737 38.7401 128.95 38.4017C130.52 37.9653 131.628 36.9279 132.541 35.6742C133.116 34.8865 133.545 33.9934 134.041 33.1483C134.1 33.0521 134.172 32.9634 134.289 32.797Z" fill="#41415A"/>
<path d="M33.2766 5.10579C35.564 5.27776 36.9712 6.81809 37.0729 9.20348C37.084 9.46421 37.0766 9.72494 37.0766 9.98382C37.0766 18.9244 37.0766 27.8668 37.0766 36.8074C37.0766 37.1513 37.0766 37.4971 37.0766 37.9576C37.4667 37.9742 37.7996 38.0001 38.1324 38.0001C43.0308 38.0019 47.9292 38.0019 52.8275 38.0019C53.1659 38.0019 53.5043 38.0019 53.9444 38.0019C53.9721 39.2871 53.9721 40.4502 53.9444 41.6632C46.9621 41.6632 40.1073 41.6632 33.2655 41.6632C33.0307 40.8921 33.0399 5.8325 33.2766 5.10579Z" fill="#41415A"/>
</svg>
